<svg width="68" height="68" viewBox="0 0 68 68" fill="none" xmlns="http://www.w3.org/2000/svg">
<rect width="68" height="68" rx="34" fill="#E6E6E6"/>
<path fill-rule="evenodd" clip-rule="evenodd" d="M49.0148 18.974C53.1641 23.1233 53.1641 29.8507 49.0148 34L48.0901 34.9247C46.3083 36.7065 43.5295 36.8839 41.5492 35.4569L40.0008 37.0053C39.171 37.8351 37.8255 37.8351 36.9956 37.0053C36.1658 36.1754 36.1658 34.8299 36.9956 34.0001L38.4975 32.4982L35.4925 29.4933L33.9911 30.9947C33.1612 31.8246 31.8157 31.8246 30.9858 30.9947C30.156 30.1649 30.156 28.8194 30.9858 27.9895L32.5335 26.4419C31.1047 24.4613 31.2816 21.6812 33.0641 19.8986L33.9888 18.974C38.1381 14.8246 44.8655 14.8246 49.0148 18.974ZM43.0537 31.044C43.0381 31.0274 43.0222 31.0111 43.006 30.9949C42.9898 30.9787 42.9734 30.9628 42.9568 30.9472L37.0545 25.0449C37.0356 25.0244 37.0162 25.0042 36.9963 24.9843C36.9764 24.9644 36.9562 24.945 36.9357 24.926L36.0693 24.0597C35.7502 23.7405 35.7502 23.223 36.0693 22.9038L36.994 21.9792C39.4836 19.4896 43.52 19.4896 46.0096 21.9792C48.4992 24.4688 48.4992 28.5052 46.0096 30.9948L45.0849 31.9195C44.7658 32.2386 44.2483 32.2386 43.9291 31.9195L43.0537 31.044Z" fill="white"/>
<path fill-rule="evenodd" clip-rule="evenodd" d="M18.9818 49.0261C14.8325 44.8767 14.8325 38.1494 18.9818 34L19.9065 33.0754C21.8854 31.0965 25.0938 31.0965 27.0727 33.0754L34.9325 40.9351C36.9114 42.914 36.9114 46.1225 34.9325 48.1014L34.0078 49.0261C29.8585 53.1754 23.1311 53.1754 18.9818 49.0261ZM21.987 37.0052C19.4974 39.4948 19.4974 43.5313 21.987 46.0209C24.4766 48.5104 28.513 48.5104 31.0026 46.0209L31.9273 45.0962C32.2465 44.777 32.2465 44.2595 31.9273 43.9403L24.0675 36.0806C23.7484 35.7614 23.2309 35.7614 22.9117 36.0806L21.987 37.0052Z" fill="white"/>
</svg>
